<svg xmlns="http://www.w3.org/2000/svg" width="512" height="512" viewBox="0 0 512 512">
  <defs>
    <linearGradient id="bg" x1="0" y1="0" x2="512" y2="512" gradientUnits="userSpaceOnUse">
      <stop offset="0" stop-color="#59C8FF"/>
      <stop offset="0.55" stop-color="#2E8BF0"/>
      <stop offset="1" stop-color="#1663D6"/>
    </linearGradient>
    <radialGradient id="bgGlow" cx="150" cy="110" r="420" gradientUnits="userSpaceOnUse">
      <stop offset="0" stop-color="#FFFFFF" stop-opacity="0.28"/>
      <stop offset="0.6" stop-color="#FFFFFF" stop-opacity="0.06"/>
      <stop offset="1" stop-color="#FFFFFF" stop-opacity="0"/>
    </radialGradient>
    <radialGradient id="halo" cx="256" cy="252" r="188" gradientUnits="userSpaceOnUse">
      <stop offset="0" stop-color="#FFFFFF" stop-opacity="0.38"/>
      <stop offset="0.75" stop-color="#FFFFFF" stop-opacity="0.15"/>
      <stop offset="1" stop-color="#FFFFFF" stop-opacity="0"/>
    </radialGradient>
    <linearGradient id="cloud" x1="256" y1="124" x2="256" y2="368" gradientUnits="userSpaceOnUse">
      <stop offset="0" stop-color="#FFFFFF"/>
      <stop offset="1" stop-color="#E4EEFB"/>
    </linearGradient>
    <radialGradient id="shadow" cx="256" cy="378" r="176" gradientUnits="userSpaceOnUse">
      <stop offset="0" stop-color="#0A3C8C" stop-opacity="0.16"/>
      <stop offset="0.7" stop-color="#0A3C8C" stop-opacity="0.05"/>
      <stop offset="1" stop-color="#0A3C8C" stop-opacity="0"/>
    </radialGradient>
    <linearGradient id="digits" x1="256" y1="196" x2="256" y2="334" gradientUnits="userSpaceOnUse">
      <stop offset="0" stop-color="#3B97F5"/>
      <stop offset="1" stop-color="#1462D0"/>
    </linearGradient>
  </defs>

  <rect x="0" y="0" width="512" height="512" rx="112" fill="url(#bg)"/>
  <rect x="0" y="0" width="512" height="512" rx="112" fill="url(#bgGlow)"/>
  <circle cx="256" cy="252" r="188" fill="url(#halo)"/>

  <ellipse cx="256" cy="378" rx="172" ry="22" fill="url(#shadow)"/>

  <g fill="url(#cloud)">
    <circle cx="256" cy="228" r="104"/>
    <circle cx="152" cy="272" r="68"/>
    <circle cx="358" cy="264" r="78"/>
    <rect x="84" y="272" width="352" height="92" rx="46"/>
  </g>

  <g transform="translate(256 262) scale(0.82) translate(-256 -268)"
     fill="none" stroke="url(#digits)" stroke-width="33" stroke-linecap="round" stroke-linejoin="round">
    <path d="M 148 232 L 170 206 L 170 324"/>
    <path d="M 234 232 L 256 206 L 256 324"/>
    <path d="M 372 206 L 332 206 L 332 258 L 352 258 A 34 34 0 1 1 352 326 L 334 326"/>
  </g>
</svg>
